<svg xmlns="http://www.w3.org/2000/svg" viewBox="0 0 62 62" width="62" height="62">
	<style>
		tspan { white-space:pre }
		.shp0 { fill: #ffffff } 
		.shp1 { fill: #dd2924 } 
	</style>
	<g id="Layer">
		<path id="Rectangle_1-2" class="shp0" d="M18 6L44 6C48.98 6 53 10.02 53 15L53 41C53 45.98 48.98 50 44 50L18 50C13.02 50 9 45.98 9 41L9 15C9 10.02 13.02 6 18 6Z" />
	</g>
	<path id="Fill_1" class="shp1" d="M33.04 25.74L29.1 25.74C28.99 25.74 28.89 25.73 28.78 25.7C28.68 25.68 28.58 25.64 28.48 25.59C28.38 25.54 28.29 25.49 28.21 25.42C28.13 25.35 28.05 25.27 27.99 25.18L23.04 18.47C22.9 18.28 22.71 18.14 22.48 18.07C22.26 18 22.02 17.99 21.79 18.06C21.57 18.13 21.37 18.27 21.23 18.46C21.09 18.65 21.01 18.87 21 19.11L21 38.13C21 38.18 21.01 38.23 21.03 38.27C21.05 38.32 21.08 38.36 21.11 38.39C21.15 38.43 21.19 38.46 21.24 38.47C21.28 38.49 21.33 38.5 21.38 38.5L23.95 38.5C24.09 38.5 24.24 38.48 24.37 38.42C24.5 38.37 24.63 38.29 24.73 38.19C24.83 38.09 24.91 37.97 24.97 37.84C25.03 37.7 25.06 37.56 25.06 37.42L25.06 32.9C25.53 32.9 26.01 32.96 26.46 33.09C26.92 33.22 27.35 33.41 27.75 33.67C28.15 33.92 28.51 34.22 28.83 34.58C29.14 34.93 29.41 35.33 29.61 35.75L29.66 35.87C29.72 36 29.81 36.12 29.9 36.23C30 36.34 30.12 36.44 30.24 36.52C30.37 36.6 30.5 36.66 30.64 36.7C30.79 36.74 30.93 36.76 31.08 36.76L31.12 36.76C31.26 36.76 31.39 36.74 31.52 36.7C31.65 36.67 31.78 36.61 31.89 36.54C32.01 36.47 32.11 36.38 32.2 36.28C32.29 36.18 32.37 36.06 32.42 35.94L32.51 35.75C32.71 35.33 32.98 34.93 33.29 34.58C33.6 34.22 33.97 33.92 34.37 33.67C34.77 33.41 35.2 33.22 35.66 33.09C36.11 32.96 36.58 32.9 37.05 32.9L37.05 37.41C37.05 37.56 37.09 37.7 37.14 37.83C37.2 37.97 37.28 38.09 37.39 38.19C37.49 38.29 37.61 38.37 37.74 38.42C37.88 38.48 38.02 38.5 38.17 38.5L40.74 38.5C40.78 38.5 40.83 38.49 40.88 38.47C40.92 38.46 40.97 38.43 41 38.39C41.04 38.36 41.06 38.32 41.08 38.27C41.1 38.23 41.11 38.18 41.12 38.13L41.12 19.06C41.09 18.82 41 18.59 40.84 18.4C40.68 18.21 40.47 18.08 40.23 18.02C40 17.96 39.75 17.98 39.52 18.07C39.29 18.16 39.1 18.31 38.96 18.52L34.13 25.2C34.07 25.28 33.99 25.36 33.91 25.43C33.83 25.49 33.74 25.55 33.64 25.59C33.55 25.64 33.45 25.68 33.35 25.7C33.25 25.72 33.14 25.73 33.03 25.73" />
</svg>