<svg xmlns="http://www.w3.org/2000/svg" viewBox="0 0 198 198" width="198" height="198">
	<style>
		tspan { white-space:pre }
		.shp0 { fill: #dd2924 } 
		.shp1 { fill: #ffffff } 
	</style>
	<g id="Layer">
		<path id="Rectangle_1-2" class="shp0" d="M42 6L156 6C174.25 6 189 20.75 189 39L189 153C189 171.25 174.25 186 156 186L42 186C23.75 186 9 171.25 9 153L9 39C9 20.75 23.75 6 42 6Z" />
	</g>
	<path id="Fill_1" class="shp1" d="M109.03 86.38L89.06 86.38C88.51 86.38 87.97 86.32 87.43 86.19C86.9 86.06 86.39 85.87 85.9 85.62C85.41 85.36 84.95 85.06 84.54 84.7C84.12 84.34 83.75 83.93 83.43 83.49L58.36 48.46C57.65 47.48 56.65 46.74 55.51 46.36C54.36 45.98 53.12 45.98 51.96 46.35C50.81 46.72 49.81 47.44 49.1 48.42C48.38 49.4 48 50.58 48 51.79L48 151.07C48 151.33 48.05 151.58 48.15 151.81C48.24 152.04 48.39 152.26 48.56 152.44C48.74 152.61 48.96 152.76 49.19 152.85C49.42 152.95 49.67 153 49.93 153L62.95 153C63.69 153 64.43 152.85 65.11 152.57C65.8 152.29 66.42 151.87 66.94 151.35C67.47 150.82 67.88 150.2 68.17 149.51C68.45 148.83 68.6 148.1 68.6 147.35L68.6 123.79C71.02 123.79 73.43 124.14 75.75 124.82C78.07 125.51 80.29 126.52 82.32 127.84C84.35 129.15 86.19 130.75 87.77 132.59C89.35 134.43 90.65 136.48 91.65 138.69L91.91 139.27C92.22 139.96 92.63 140.6 93.12 141.17C93.62 141.75 94.19 142.25 94.82 142.66C95.46 143.07 96.15 143.38 96.88 143.6C97.6 143.81 98.35 143.92 99.11 143.92L99.33 143.92C100.02 143.92 100.71 143.82 101.37 143.63C102.03 143.43 102.66 143.14 103.25 142.77C103.83 142.39 104.35 141.93 104.8 141.41C105.25 140.89 105.62 140.3 105.91 139.67L106.35 138.69C107.34 136.48 108.65 134.43 110.23 132.59C111.81 130.75 113.64 129.15 115.68 127.84C117.71 126.53 119.92 125.51 122.25 124.82C124.57 124.14 126.98 123.79 129.4 123.79L129.4 147.35C129.4 148.1 129.55 148.83 129.83 149.52C130.11 150.2 130.53 150.82 131.05 151.35C131.58 151.87 132.2 152.29 132.89 152.57C133.57 152.85 134.31 153 135.05 153L148.07 153C148.33 153 148.58 152.95 148.81 152.85C149.04 152.76 149.26 152.61 149.44 152.44C149.61 152.26 149.76 152.04 149.85 151.81C149.95 151.58 150 151.33 150 151.07L150 51.54C150 46.04 142.69 43.81 139.09 48.71L114.59 83.59C114.26 84.03 113.89 84.42 113.48 84.76C113.07 85.11 112.62 85.4 112.14 85.65C111.66 85.89 111.15 86.07 110.63 86.2C110.11 86.32 109.57 86.38 109.03 86.38" />
</svg>