<svg xmlns="http://www.w3.org/2000/svg" viewBox="0 0 241 241" width="241" height="241">
	<style>
		tspan { white-space:pre }
		.shp0 { fill: #ffffff } 
		.shp1 { fill: #dd2924 } 
	</style>
	<g id="Layer">
		<path id="Ellipse_1-2" class="shp0" d="M120.5 232C58.84 232 9 182.16 9 120.5C9 58.84 58.84 9 120.5 9C182.16 9 232 58.84 232 120.5C232 182.16 182.16 232 120.5 232Z" />
	</g>
	<path id="Fill_1" class="shp1" d="M130.03 107.38L110.06 107.38C109.51 107.38 108.97 107.32 108.43 107.19C107.9 107.06 107.39 106.87 106.9 106.62C106.41 106.36 105.95 106.06 105.54 105.7C105.12 105.34 104.75 104.93 104.43 104.49L79.36 69.46C78.65 68.48 77.65 67.74 76.51 67.36C75.36 66.98 74.12 66.98 72.96 67.35C71.81 67.72 70.81 68.44 70.1 69.42C69.38 70.4 69 71.58 69 72.79L69 172.07C69 172.33 69.05 172.58 69.15 172.81C69.24 173.04 69.39 173.26 69.56 173.44C69.74 173.61 69.96 173.76 70.19 173.85C70.42 173.95 70.67 174 70.93 174L83.95 174C84.69 174 85.43 173.85 86.11 173.57C86.8 173.29 87.42 172.87 87.94 172.35C88.47 171.82 88.88 171.2 89.17 170.51C89.45 169.83 89.6 169.1 89.6 168.35L89.6 144.79C92.02 144.79 94.43 145.14 96.75 145.82C99.07 146.51 101.29 147.52 103.32 148.84C105.35 150.15 107.19 151.75 108.77 153.59C110.35 155.43 111.65 157.48 112.65 159.69L112.91 160.27C113.22 160.96 113.63 161.6 114.12 162.17C114.62 162.75 115.19 163.25 115.82 163.66C116.46 164.07 117.15 164.38 117.88 164.6C118.6 164.81 119.35 164.92 120.11 164.92L120.33 164.92C121.02 164.92 121.71 164.82 122.37 164.63C123.03 164.43 123.66 164.14 124.25 163.77C124.83 163.39 125.35 162.93 125.8 162.41C126.25 161.89 126.62 161.3 126.91 160.67L127.35 159.69C128.34 157.48 129.65 155.43 131.23 153.59C132.81 151.75 134.64 150.15 136.68 148.84C138.71 147.53 140.92 146.51 143.25 145.82C145.57 145.14 147.98 144.79 150.4 144.79L150.4 168.35C150.4 169.1 150.55 169.83 150.83 170.52C151.11 171.2 151.53 171.82 152.05 172.35C152.58 172.87 153.2 173.29 153.89 173.57C154.57 173.85 155.31 174 156.05 174L169.07 174C169.33 174 169.58 173.95 169.81 173.85C170.04 173.76 170.26 173.61 170.44 173.44C170.61 173.26 170.76 173.04 170.85 172.81C170.95 172.58 171 172.33 171 172.07L171 72.54C171 67.04 163.69 64.81 160.09 69.71L135.59 104.59C135.26 105.03 134.89 105.42 134.48 105.76C134.07 106.11 133.62 106.4 133.14 106.65C132.66 106.89 132.15 107.07 131.63 107.2C131.11 107.32 130.57 107.38 130.03 107.38" />
</svg>